<?xml version="1.0" encoding="utf-8"?>
<!-- Generator: Adobe Illustrator 14.0.0, SVG Export Plug-In . SVG Version: 6.00 Build 43363)  -->
<!DOCTYPE svg PUBLIC "-//W3C//DTD SVG 1.1//EN" "http://www.w3.org/Graphics/SVG/1.1/DTD/svg11.dtd">
<svg version="1.1" id="Layer_1" xmlns="http://www.w3.org/2000/svg" xmlns:xlink="http://www.w3.org/1999/xlink" x="0px" y="0px"
	 width="283.826px" height="53.111px" viewBox="0 0 283.826 53.111" enable-background="new 0 0 283.826 53.111"
	 xml:space="preserve">
<g>
	<path fill="#86BC25" d="M268.709,45.502c0-4.146,3.368-7.512,7.512-7.512c4.149,0,7.512,3.365,7.512,7.512
		c0,4.148-3.362,7.512-7.512,7.512C272.077,53.014,268.709,49.65,268.709,45.502"/>
	<path d="M43.33,25.11c0,8.668-2.332,15.35-6.993,20.038c-4.661,4.692-11.213,7.037-19.657,7.037H0.267V0.235h17.558
		c8.143,0,14.43,2.134,18.861,6.396C41.114,10.896,43.33,17.054,43.33,25.11 M29.103,25.605c0-4.759-0.919-8.289-2.759-10.589
		c-1.84-2.297-4.63-3.446-8.381-3.446h-3.989v29.102h3.053c4.165,0,7.218-1.236,9.161-3.714
		C28.13,34.484,29.103,30.698,29.103,25.605"/>
	<rect x="88.789" y="0.018" width="13.059" height="52.167"/>
	<path d="M144.703,32.727c0,6.336-1.66,11.28-4.992,14.824c-3.328,3.546-7.988,5.318-13.976,5.318
		c-5.745,0-10.315-1.813-13.709-5.438c-3.398-3.625-5.095-8.525-5.095-14.704c0-6.317,1.663-11.227,4.993-14.727
		c3.33-3.499,8-5.249,14.012-5.249c3.716,0,7.002,0.81,9.851,2.43c2.85,1.619,5.049,3.939,6.596,6.961
		C143.931,25.16,144.703,28.689,144.703,32.727 M120.191,32.727c0,3.327,0.434,5.864,1.302,7.607
		c0.869,1.744,2.326,2.616,4.374,2.616c2.027,0,3.458-0.872,4.293-2.616c0.835-1.743,1.251-4.28,1.251-7.607
		c0-3.309-0.422-5.804-1.268-7.489c-0.847-1.689-2.293-2.534-4.343-2.534c-2.004,0-3.438,0.84-4.307,2.515
		C120.625,26.895,120.191,29.396,120.191,32.727"/>
	<rect x="149.889" y="13.436" width="13.06" height="38.75"/>
	<rect x="149.889" y="0.017" width="13.06" height="8.732"/>
	<path d="M189.41,42.302c1.762,0,3.863-0.447,6.314-1.336v9.75c-1.763,0.771-3.437,1.327-5.027,1.656
		c-1.591,0.332-3.458,0.497-5.596,0.497c-4.385,0-7.547-1.102-9.486-3.302c-1.934-2.199-2.902-5.579-2.902-10.138V23.456h-4.573
		V13.438h4.573V3.544l13.159-2.29v12.184h8.333v10.018h-8.333v15.083C185.872,41.047,187.053,42.302,189.41,42.302"/>
	<path d="M219.638,42.302c1.762,0,3.862-0.447,6.313-1.336v9.75c-1.759,0.771-3.436,1.327-5.026,1.656
		c-1.594,0.332-3.455,0.497-5.596,0.497c-4.385,0-7.546-1.102-9.483-3.302c-1.937-2.199-2.905-5.579-2.905-10.138V23.456h-4.578
		V13.438h4.578V3.394l13.159-2.14v12.184h8.336v10.018H216.1v15.083C216.1,41.047,217.279,42.302,219.638,42.302"/>
	<path d="M260.848,17.318c-3.103-3.043-7.508-4.566-13.206-4.566c-5.989,0-10.598,1.749-13.829,5.25
		c-3.227,3.499-4.842,8.521-4.842,15.064c0,6.338,1.744,11.225,5.227,14.655c3.486,3.431,8.38,5.147,14.681,5.147
		c3.027,0,5.632-0.207,7.813-0.617c2.169-0.407,4.271-1.141,6.308-2.203l-2.007-8.731c-1.481,0.604-2.891,1.069-4.22,1.377
		c-1.923,0.444-4.032,0.669-6.326,0.669c-2.518,0-4.505-0.616-5.962-1.848c-1.456-1.231-2.232-2.932-2.32-5.098h23.344V30.47
		C265.508,24.746,263.954,20.361,260.848,17.318 M242.431,28.006c0.179-2.121,0.784-3.676,1.819-4.67
		c1.039-0.991,2.322-1.487,3.857-1.487c1.672,0,3.003,0.558,3.99,1.678c0.994,1.116,1.511,2.609,1.552,4.479H242.431z"/>
	<path d="M79.081,17.318c-3.105-3.043-7.509-4.566-13.209-4.566c-5.99,0-10.598,1.749-13.826,5.25
		c-3.228,3.499-4.844,8.521-4.844,15.064c0,6.338,1.743,11.225,5.229,14.655c3.483,3.431,8.377,5.147,14.678,5.147
		c3.027,0,5.632-0.207,7.814-0.617c2.169-0.407,4.27-1.141,6.308-2.203l-2.007-8.731c-1.481,0.604-2.89,1.069-4.218,1.377
		c-1.926,0.444-4.034,0.669-6.328,0.669c-2.515,0-4.505-0.616-5.962-1.848c-1.458-1.231-2.232-2.932-2.321-5.098h23.344V30.47
		C83.739,24.746,82.187,20.361,79.081,17.318 M60.662,28.006c0.178-2.121,0.785-3.676,1.82-4.67
		c1.036-0.991,2.321-1.487,3.859-1.487c1.668,0,2.999,0.558,3.989,1.678c0.992,1.116,1.509,2.609,1.553,4.479H60.662z"/>
</g>
</svg>
